# AST/ASF file generated using VICON BodyLanguage
# -----------------------------------------------
:version 1.10
:name VICON
:units
  mass 1.0
  length 0.45
  angle deg
:documentation
   .ast/.asf automatically generated from VICON data using
   VICON BodyBuilder and BodyLanguage model FoxedUp or BRILLIANT.MOD
:root
   order TX TY TZ RX RY RZ
   axis XYZ
   position 0 0 0  
   orientation 0 0 0 
:bonedata
  begin
     id 1 
     name lhipjoint
     direction 0.576517 -0.752066 0.319413 
     length 2.45433 
     axis 0 0 0  XYZ
  end
  begin
     id 2 
     name lfemur
     direction 0.34202 -0.939693 0  
     length 7.54459  
     axis 0 0 20  XYZ
    dof rx ry rz
    limits (-160.0 20.0)
           (-70.0 70.0)
           (-60.0 70.0)
  end
  begin
     id 3 
     name ltibia
     direction 0.34202 -0.939693 0   
     length 7.73986   
     axis 0 0 20   XYZ
    dof rx
    limits (-10.0 170.0)
  end
  begin
     id 4 
     name lfoot
     direction 0.090693 -0.249177 0.964202   
     length 2.28437   
     axis -90 7.62852e-016 20   XYZ
    dof rx rz
    limits (-45.0 90.0)
           (-70.0 20.0)
  end
  begin
     id 5 
     name ltoes
     direction 1.5356e-011 -4.21928e-011 1   
     length 1.14243   
     axis -90 7.62852e-016 20   XYZ
    dof rx
    limits (-90.0 20.0)
  end
  begin
     id 6 
     name rhipjoint
     direction -0.573937 -0.753736 0.320122   
     length 2.44889  
     axis 0 0 0  XYZ 
  end
  begin
     id 7 
     name rfemur
     direction -0.34202 -0.939693 0   
     length 7.50166   
     axis 0 0 -20   XYZ
    dof rx ry rz
    limits (-160.0 20.0)
           (-70.0 70.0)
           (-70.0 60.0)
  end
  begin
     id 8 
     name rtibia
     direction -0.34202 -0.939693 0   
     length 7.54266   
     axis 0 0 -20   XYZ
    dof rx
    limits (-10.0 170.0)
 end
 begin
     id 9 
     name rfoot
     direction -0.114017 -0.31326 0.942798   
     length 2.34212  
     axis -90 -7.62852e-016 -20   XYZ
    dof rx rz
    limits (-45.0 90.0)
           (-20.0 70.0)
  end
  begin
     id 10 
     name rtoes
     direction -1.53557e-011 -4.21867e-011 1   
     length 1.16246   
     axis -90 -7.62852e-016 -20   XYZ
    dof rx
    limits (-90.0 20.0)
  end
  begin
     id 11 
     name lowerback
     direction -0.0228371 0.999155 -0.034167   
     length 2.0537   
     axis 0 0 0   XYZ
    dof rx ry rz
    limits (-20.0 45.0)
           (-30.0 30.0)
           (-30.0 30.0)
  end
  begin
     id 12 
     name upperback
     direction 0.0198981 0.999794 0.00389455   
     length 2.05302   
     axis 0 0 0   XYZ
    dof rx ry rz
    limits (-20.0 45.0)
           (-30.0 30.0)
           (-30.0 30.0)
  end
  begin
     id 13 
     name thorax
     direction 0.0304566 0.99935 0.0192987   
     length 2.05315   
     axis 0 0 0   XYZ
    dof rx ry rz
    limits (-20.0 45.0)
           (-30.0 30.0)
           (-30.0 30.0)
  end
  begin
     id 14 
     name lowerneck
     direction -0.0196762 0.99417 0.106017   
     length 1.82056   
     axis 0 0 0   XYZ
    dof rx ry rz
    limits (-20.0 45.0)
           (-30.0 30.0)
           (-30.0 30.0)
  end
  begin
     id 15 
     name upperneck
     direction 0.00517787 0.9802 -0.197944   
     length 1.83835   
     axis 0 0 0   XYZ
    dof rx ry rz
    limits (-20.0 45.0)
           (-30.0 30.0)
           (-30.0 30.0)
  end
  begin
     id 16
     name head
     direction 0.00211419 0.996945 -0.078081  
     length 1.85629  
     axis 0 0 0   XYZ
    dof rx ry rz
    limits (-20.0 45.0)
           (-30.0 30.0)
           (-30.0 30.0)
  end
  begin
     id 17 
     name lclavicle
     direction 0.930001 0.365811 -0.0357824  
     length 3.81961  
     axis 0 0 0   XYZ
    dof ry rz
    limits (-20.0 10.0)
           (0.0 20.0)
  end
  begin
     id 18 
     name lhumerus
     direction 1 -4.48968e-011 -3.06644e-027   
     length 5.14507   
     axis 180 -30 -90   XYZ
    dof rx ry rz
    limits (-60.0 90.0)
           (-90.0 90.0)
           (-90.0 90.0)
  end
  begin
     id 19
     name lradius
     direction 1 -4.48965e-011 9.06925e-028   
     length 3.50646   
     axis 180 -30 -90   XYZ
    dof rx
    limits (-10.0 170.0)
  end
  begin
     id 20
     name lwrist
     direction 1 -4.48957e-011 1.03922e-027   
     length 1.75323   
     axis -2.56395e-016 90 90   XYZ
    dof ry
    limits (-180.0 0.0)
 end
  begin
     id 21 
     name lhand
     direction 1 -4.48967e-011 2.08017e-027   
     length 0.629969   
     axis -1.32723e-015 90 90   XYZ
    dof rx rz
    limits (-90.0 90.0)
           (-45.0 45.0)
  end
  begin
     id 22 
     name lfingers
     direction 1 -4.49089e-011 4.20095e-027   
     length 0.507897   
     axis -2.6545e-015 90 90   XYZ
    dof rx
    limits (0.0 90.0)
  end
  begin
     id 23
     name lthumb
     direction 0.707107 -6.35001e-011 0.707107   
     length 0.729241   
     axis -90 45 5.05613e-014   XYZ
    dof rx rz
    limits (-45.0 45.0)
           (-45.0 45.0)
  end
  begin
     id 24 
     name rclavicle
     direction -0.881882 0.464123 -0.0829113   
     length 3.47515  
     axis 0 0 0   XYZ 
    dof ry rz
    limits (-10.0 20.0)
           (-20.0 0.0)
  end
  begin
     id 25 
     name rhumerus
     direction -1 -4.48961e-011 -1.55672e-027  
     length 5.232   
     axis 180 30 90   XYZ
    dof rx ry rz
    limits (-90.0 60.0)
           (-90.0 90.0)
           (-90.0 90.0)
  end
  begin
     id 26 
     name rradius
     direction -1 -4.48963e-011 6.18178e-029   
     length 3.65641   
     axis 180 30 90   XYZ
    dof rx
    limits (-10.0 170.0)
  end
  begin
     id 27 
     name rwrist
     direction -1 -4.48982e-011 1.04136e-027   
     length 1.8282   
     axis -2.56395e-016 -90 -90   XYZ
    dof ry
    limits (-180.0 0.0)
  end
  begin
     id 28
     name rhand
     direction -1 -4.48929e-011 2.07378e-027   
     length 0.656807   
     axis -1.32723e-015 -90 -90   XYZ
    dof rx rz
    limits (-90.0 90.0)
           (-45.0 45.0)
  end
  begin
     id 29
     name rfingers
     direction -1 -4.489e-011 4.13816e-027   
     length 0.529535   
     axis -2.6545e-015 -90 -90   XYZ
    dof rx
    limits (0.0 90.0)
  end
  begin
     id 30
     name rthumb
     direction -0.707107 -6.34843e-011 0.707107   
     length 0.760309   
     axis -90 -45 -5.05613e-014   XYZ
    dof rx rz
    limits (-45.0 45.0)
           (-45.0 45.0)
  end
:hierarchy
  begin
    root lhipjoint rhipjoint lowerback
    lhipjoint lfemur
    lfemur ltibia
    ltibia lfoot
    lfoot ltoes
    rhipjoint rfemur
    rfemur rtibia
    rtibia rfoot
    rfoot rtoes
    lowerback upperback
    upperback thorax
    thorax lowerneck lclavicle rclavicle
    lowerneck upperneck
    upperneck head
    lclavicle lhumerus
    lhumerus lradius
    lradius lwrist
    lwrist lhand lthumb
    lhand lfingers
    rclavicle rhumerus
    rhumerus rradius
    rradius rwrist
    rwrist rhand rthumb
    rhand rfingers
  end

#!OML:ASF H:\ManfredETheater\Project 1\Capture day 1\Session 1\subject.ASF
:FULLY-SPECIFIED
:DEGREES
15
root 19.7061 15.142 38.1337 -150.266 -29.4045 -182.357
lowerback 20.7811 0.81624 0.680573
upperback -0.153977 0.998887 -0.994757
thorax -11.847 0.33431 -1.79017
lowerneck -12.0241 -2.93221 -3.85583
upperneck -15.6782 -4.70257 4.88616
head -2.84584 -2.95299 2.23722
rclavicle 9.14409e-015 -9.54166e-015
rhumerus -34.8535 12.0291 -91.721
rradius 83.0875
rwrist -10.8526
rhand -34.4997 -0.68705
rfingers 7.12502
rthumb -7.66191 -30.5283
lclavicle 9.14409e-015 -9.54166e-015
lhumerus -56.9639 -21.3035 100.772
lradius 76.1521
lwrist 10.2514
lhand -36.1301 -14.133
lfingers 7.12502
lthumb -9.23539 15.6447
rfemur -34.9684 -9.96838 15.8738
rtibia 80.0938
rfoot -7.32006 -13.1068
rtoes -25.5106
lfemur -64.8391 0.303863 -29.4872
ltibia 72.9978
lfoot -29.065 -1.84903
ltoes 4.36227
16
root 19.5751 15.1189 37.816 -150.029 -29.7662 -182.875
lowerback 21.0729 0.617768 0.497635
upperback -0.106661 0.682753 -1.01759
thorax -11.971 0.193532 -1.61874
lowerneck -12.045 -2.85205 -3.82026
upperneck -16.0015 -4.6261 5.01044
head -2.95782 -2.941 2.28614
rclavicle -4.17448e-015 6.14245e-014
rhumerus -34.947 10.848 -91.5265
rradius 80.0716
rwrist -12.1342
rhand -35.146 -0.98424
rfingers 7.12502
rthumb -8.2857 -30.8018
lclavicle -4.17448e-015 6.14245e-014
lhumerus -53.7159 -21.4932 100.939
lradius 74.9166
lwrist 9.6507
lhand -36.1216 -14.4325
lfingers 7.12502
lthumb -9.22714 15.3456
rfemur -38.3955 -10.4841 15.328
rtibia 82.3402
rfoot -9.62257 -13.3097
rtoes -27.0888
lfemur -63.6653 0.576904 -29.9111
ltibia 73.6097
lfoot -29.7436 -2.1865
ltoes 3.12671
17
root 19.4463 15.0894 37.4966 -149.858 -30.1699 -183.392
lowerback 21.3826 0.409831 0.294837
upperback -0.0430485 0.351079 -1.00866
thorax -12.085 0.0483201 -1.39297
lowerneck -12.0775 -2.77327 -3.78644
upperneck -16.2912 -4.55172 5.10481
head -3.05733 -2.92834 2.32403
rclavicle -4.87022e-014 -2.127e-014
rhumerus -35.1263 9.62871 -91.2651
rradius 77.147
rwrist -13.629
rhand -35.8947 -1.26447
rfingers 7.12502
rthumb -9.00816 -31.0521
lclavicle -4.87022e-014 -2.127e-014
lhumerus -50.5075 -21.6475 101.152
lradius 74.0016
lwrist 9.13279
lhand -36.0497 -14.7439
lfingers 7.12502
lthumb -9.15777 15.0373
rfemur -41.7955 -10.9695 14.8047
rtibia 84.3212
rfoot -11.6595 -13.5138
rtoes -29.0812
lfemur -62.4805 0.865211 -30.252
ltibia 74.3094
lfoot -30.293 -2.62865
ltoes 1.56421
18
root 19.3197 15.0536 37.1737 -149.754 -30.6304 -183.901
lowerback 21.6936 0.190132 0.0779688
upperback 0.0424116 0.00240306 -0.966962
thorax -12.1719 -0.102235 -1.11396
lowerneck -12.1286 -2.69515 -3.75097
upperneck -16.5456 -4.47823 5.17674
head -3.14222 -2.91461 2.35241
rclavicle -9.06458e-014 -2.98177e-014
rhumerus -35.3917 8.37137 -90.9353
rradius 74.3314
rwrist -15.217
rhand -36.7327 -1.52588
rfingers 7.12502
rthumb -9.81675 -31.2771
lclavicle -9.06458e-014 -2.98177e-014
lhumerus -47.3668 -21.7762 101.415
lradius 73.4692
lwrist 8.67659
lhand -35.9357 -15.0675
lfingers 7.12502
lthumb -9.04771 14.7184
rfemur -45.1449 -11.4338 14.3144
rtibia 86.0247
rfoot -13.482 -13.7268
rtoes -31.0391
lfemur -61.2674 1.1578 -30.4785
ltibia 75.077
lfoot -30.7176 -3.23137
ltoes -0.174457
19
root 19.1952 15.0126 36.8457 -149.7 -31.1669 -184.391
lowerback 21.9698 -0.0452289 -0.134558
upperback 0.145958 -0.3627 -0.893083
thorax -12.2145 -0.258898 -0.793119
lowerneck -12.1954 -2.61904 -3.71244
upperneck -16.7702 -4.40696 5.2365
head -3.21444 -2.90091 2.37469
rclavicle -8.09054e-014 1.03368e-014
rhumerus -35.7453 7.07676 -90.5409
rradius 71.6316
rwrist -16.7838
rhand -37.6356 -1.72469
rfingers 7.12502
rthumb -10.6878 -31.4328
lclavicle -8.09054e-014 1.03368e-014
lhumerus -44.3164 -21.9104 101.727
lradius 73.3591
lwrist 8.27439
lhand -35.6873 -15.421
lfingers 7.12502
lthumb -8.80804 14.3752
rfemur -48.4507 -11.8775 13.8825
rtibia 87.4359
rfoot -15.0578 -13.9555
rtoes -32.7466
lfemur -60.0299 1.44273 -30.5608
ltibia 75.8784
lfoot -31.0347 -3.99648
ltoes -2.0745
20
root 19.0718 14.969 36.51 -149.677 -31.8216 -184.884
lowerback 22.2059 -0.315895 -0.32329
upperback 0.261759 -0.765237 -0.794879
thorax -12.2159 -0.433119 -0.444429
lowerneck -12.2811 -2.54645 -3.67265
upperneck -16.953 -4.33681 5.30034
head -3.26869 -2.88618 2.39608
rclavicle 2.84262e-014 -1.55052e-014
rhumerus -36.2044 5.73693 -90.0897
rradius 69.0458
rwrist -18.1834
rhand -38.5392 -1.78861
rfingers 7.12502
rthumb -11.5593 -31.4498
lclavicle 2.84262e-014 -1.55052e-014
lhumerus -41.38 -22.0877 102.083
lradius 73.6928
lwrist 7.91484
lhand -35.1923 -15.791
lfingers 7.12502
lthumb -8.33038 14.0248
rfemur -51.6724 -12.3422 13.5052
rtibia 88.5307
rfoot -16.3527 -14.1767
rtoes -33.9855
lfemur -58.7179 1.67466 -30.4852
ltibia 76.6509
lfoot -31.2718 -4.95905
ltoes -3.98223
21
root 18.9486 14.9227 36.1668 -149.649 -32.5677 -185.363
lowerback 22.3505 -0.610907 -0.477618
upperback 0.376483 -1.18634 -0.677278
thorax -12.1625 -0.616928 -0.0871178
lowerneck -12.4055 -2.48869 -3.6291
upperneck -17.0718 -4.28218 5.36328
head -3.29289 -2.87649 2.41273
rclavicle -5.1684e-014 -1.41137e-014
rhumerus -36.7892 4.34991 -89.5762
rradius 66.5758
rwrist -19.3151
rhand -39.406 -1.59601
rfingers 7.12502
rthumb -12.3951 -31.2085
lclavicle -5.1684e-014 -1.41137e-014
lhumerus -38.5548 -22.351 102.482
lradius 74.461
lwrist 7.5907
lhand -34.7617 -16.0181
lfingers 7.12502
lthumb -7.91482 13.8138
rfemur -54.8091 -12.8107 13.1939
rtibia 89.2743
rfoot -17.3303 -14.4329
rtoes -34.967
lfemur -57.3624 1.8615 -30.2532
ltibia 77.3364
lfoot -31.4432 -6.08768
ltoes -5.84032
22
root 18.8234 14.88 35.8141 -149.613 -33.3809 -185.836
lowerback 22.4056 -0.923433 -0.603183
upperback 0.48769 -1.61932 -0.549782
thorax -12.0586 -0.807804 0.267319
lowerneck -12.5714 -2.44844 -3.59328
upperneck -17.1208 -4.24413 5.43327
head -3.28394 -2.87133 2.42898
rclavicle 4.39314e-014 5.08889e-014
rhumerus -37.528 2.90347 -88.9811
rradius 64.2811
rwrist -19.9875
rhand -40.0753 -1.46892
rfingers 7.12502
rthumb -13.0404 -31.0413
lclavicle 4.39314e-014 5.08889e-014
lhumerus -35.8361 -22.7326 102.91
lradius 75.6444
lwrist 7.30617
lhand -34.3194 -16.1157
lfingers 7.12502
lthumb -7.48785 13.7318
rfemur -57.8655 -13.2774 12.9194
rtibia 89.6538
rfoot -18.0514 -14.6202
rtoes -35.4817
lfemur -55.8907 2.01467 -29.8846
ltibia 77.8462
lfoot -31.5748 -7.38429
ltoes -7.4683
23
root 18.6939 14.8461 35.4511 -149.584 -34.2366 -186.302
lowerback 22.3949 -1.24825 -0.696038
upperback 0.590752 -2.05786 -0.422432
thorax -11.9238 -1.00372 0.602086
lowerneck -12.7839 -2.42696 -3.57115
upperneck -17.0866 -4.22202 5.51395
head -3.2361 -2.86907 2.44648
rclavicle 1.72943e-014 1.03368e-014
rhumerus -38.4763 1.43115 -88.3175
rradius 62.2362
rwrist -20.3006
rhand -40.5802 -1.38164
rfingers 7.12502
rthumb -13.5271 -30.9223
lclavicle 1.72943e-014 1.03368e-014
lhumerus -33.2246 -23.2474 103.351
lradius 77.2188
lwrist 7.08372
lhand -33.9511 -16.04
lfingers 7.12502
lthumb -7.13232 13.8198
rfemur -60.7555 -13.7057 12.6517
rtibia 89.6225
rfoot -18.5071 -14.7407
rtoes -35.5625
lfemur -54.2338 2.14708 -29.4014
ltibia 78.1048
lfoot -31.6846 -8.81517
ltoes -8.78981
24
root 18.5591 14.8202 35.0782 -149.581 -35.1023 -186.763
lowerback 22.3441 -1.57628 -0.760843
upperback 0.684561 -2.49272 -0.301562
thorax -11.7747 -1.20049 0.909431
lowerneck -13.0448 -2.42382 -3.56405
upperneck -16.9629 -4.21535 5.59719
head -3.14718 -2.86854 2.4624
rclavicle 1.27222e-014 -6.04305e-014
rhumerus -39.6871 -0.0117428 -87.5917
rradius 60.5363
rwrist -20.3765
rhand -40.9383 -1.35715
rfingers 7.12502
rthumb -13.8721 -30.8745
lclavicle 1.27222e-014 -6.04305e-014
lhumerus -30.7248 -23.8948 103.793
lradius 79.1606
lwrist 6.92888
lhand -33.7178 -15.8706
lfingers 7.12502
lthumb -6.90713 13.9967
rfemur -63.4435 -14.1052 12.3732
rtibia 89.1931
rfoot -18.7996 -14.8053
rtoes -35.51
lfemur -52.3532 2.27473 -28.8277
ltibia 78.0717
lfoot -31.7721 -10.3442
ltoes -9.74607
25
root 18.419 14.8015 34.6958 -149.602 -35.9678 -187.246
lowerback 22.2847 -1.90733 -0.815871
upperback 0.766965 -2.92981 -0.192878
thorax -11.6318 -1.39979 1.19604
lowerneck -13.356 -2.43485 -3.57069
upperneck -16.7507 -4.22 5.67186
head -3.01818 -2.86744 2.47291
rclavicle 2.14687e-014 -5.36719e-015
rhumerus -41.2193 -1.34833 -86.8238
rradius 59.2891
rwrist -20.3486
rhand -41.2311 -1.40307
rfingers 7.12502
rthumb -14.1543 -30.9009
lclavicle 2.14687e-014 -5.36719e-015
lhumerus -28.3249 -24.6472 104.226
lradius 81.4235
lwrist 6.85021
lhand -33.6556 -15.6919
lfingers 7.12502
lthumb -6.84711 14.1773
rfemur -65.9036 -14.4911 12.0457
rtibia 88.3779
rfoot -18.978 -14.7808
rtoes -35.3746
lfemur -50.2261 2.38705 -28.2029
ltibia 77.7261
lfoot -31.8304 -11.9126
ltoes -10.4132
